<?xml version="1.0" encoding="utf-8"?>
<!-- Generator: Adobe Illustrator 27.2.0, SVG Export Plug-In . SVG Version: 6.00 Build 0)  -->
<svg version="1.1" id="Layer_1" xmlns="http://www.w3.org/2000/svg" xmlns:xlink="http://www.w3.org/1999/xlink" x="0px" y="0px"
	 viewBox="0 0 864 800" style="enable-background:new 0 0 864 800;" xml:space="preserve">
<style type="text/css">
	.st0{fill:#7E8287;}
	.st1{fill:#012169;}
	.st2{fill:#993399;}
	.st3{fill:#C7302E;}
	.st4{fill:#FFE265;}
	.st5{fill:#FEB502;}
	.st6{fill:#FF8B0D;}
	.st7{fill:#ED6B31;}
	.st8{opacity:0.7;fill:#D8D9DA;enable-background:new    ;}
	.st9{font-family:'BerlinSansFBDemi-Bold';}
	.st10{font-size:39.3032px;}
	.st11{font-family:'BerlinSansFB-Reg';}
</style>
<path class="st0" d="M134.5,742.8c-12.6,0-23.8-1.7-36.5-5.4c-38.2-11.2-54-47.5-56.1-77.5c-1-15.3-4.2-177.3-5.6-246.8
	c-0.5-4.3-0.3-8.6,0.5-12.8c0.7-3.9,2-7.7,3.8-11.3c4.3-8.4,9.2-13,43.6-40.6c19.9-16,46.3-36.7,72.3-56.9
	c28.4-22,54.7-41.8,73.8-56c38.9-28.6,46.3-32.5,60.4-32.5c1.7,0,3.4,0.1,5.1,0.3c0.7-7.9,3.1-16.1,9.4-23.9
	c5.5-6.9,7.8-9.7,97.1-58.5c25.3-13.8,83.7-45.4,92.4-49.3c0.4-0.2,2.1-1.2,3-1.7c8.2-4.8,21.9-12.9,42.5-12.9c5.9,0,12,0.7,18.1,2
	c1.1,0.2,2.3,0.5,3.6,0.8l0.8,0.2c25.1,5.4,77.3,16.6,134.7,55.3c44.5,29.9,74,52.8,93,71.7c23.7,23.7,33.9,44.7,32,65.9
	c1,44.8,5.6,260.7,5.6,281.8c0,19.3-6,38.2-16.9,53.3c-12.4,17.1-30.5,28.2-51,31.4c-6,0.9-75.3,15.5-142.3,29.5l-1.1,0.2
	c-162.5,34.1-408.2,85.6-446.8,90.4C156.3,741.5,145.6,742.8,134.5,742.8L134.5,742.8z"/>
<path class="st1" d="M134.8,732.4c-11.6,0-22-1.5-33.6-5c-33.2-9.8-47-41.8-48.8-68.5c-1-15.1-4.2-177-5.6-246.5
	c-0.4-3.5-0.3-7,0.3-10.3c0.5-3,1.5-5.8,2.9-8.5c3.2-6.4,6.9-10.1,40.9-37.4c19.9-15.9,46.1-36.6,72.1-56.7
	c28.3-21.9,54.4-41.7,73.5-55.7c38.3-28.1,43.7-30.6,54.4-30.6c1.4,0,2.9,0.1,4.3,0.3c4.1,0.6,7.8,1.9,11.2,3.5
	c-1.2-11-1-21.4,6.8-31c4.2-5.3,6.5-8.2,94-55.9c28-15.3,83.6-45.3,91.6-48.8c0.8-0.4,2.5-1.3,4-2.2c7.8-4.6,19.6-11.5,37.4-11.5
	c5.2,0,10.5,0.6,15.9,1.8c1.2,0.3,2.4,0.5,3.8,0.8l0.7,0.1c24.4,5.3,75.3,16.2,131,53.8c43.8,29.6,72.9,52,91.4,70.4
	c21.6,21.6,30.9,40.2,29.1,58.4c1,44.9,5.6,260.9,5.6,281.9c0,17.2-5.3,34-15,47.3c-10.9,14.9-26.6,24.7-44.4,27.4
	c-6.2,1-72.6,14.9-142.9,29.7l-0.9,0.2c-162.2,34-407.3,85.5-445.4,90.2C155.7,731.1,145.3,732.4,134.8,732.4L134.8,732.4z"/>
<path class="st2" d="M134.8,722.4c-10.6,0-20.1-1.4-30.8-4.6c-28.3-8.3-40.1-36.3-41.7-59.6c-1-15.4-4.5-191.7-5.6-246.6
	c-0.4-2.6-0.3-5.3,0.2-7.8c0.3-2,1-3.9,1.9-5.7c2.1-4.2,4.9-7.3,38.3-34.1c19.8-15.9,46-36.5,71.9-56.6
	c28.3-21.9,54.3-41.6,73.3-55.6c37.2-27.4,41.3-28.7,48.5-28.7c0.9,0,1.9,0.1,2.8,0.2c6.6,1,11.8,4.3,17.9,8.1
	c1.6,1,4.5,2.8,7.1,4.2c-0.3-3.9-0.9-8.3-1.5-12.3c-1.8-12.7-3.2-22.7,3.7-31.2c3-3.7,5.3-6.7,91-53.4
	c32.7-17.8,83.9-45.3,90.9-48.4c1.3-0.6,3.1-1.6,5-2.7c7.3-4.3,17.3-10.1,32.4-10.1c4.4,0,9.1,0.5,13.8,1.6c1.3,0.3,2.7,0.6,4.3,0.9
	l0.3,0.1c23.8,5.1,73.4,15.8,127.5,52.3c43.3,29.2,71.9,51.2,89.9,69.2c19.6,19.5,27.9,35.7,26.1,50.9c0.6,29.9,5.6,260.9,5.6,282.3
	c0,15.1-4.6,29.8-13,41.4c-9.3,12.7-22.7,21.1-37.8,23.4c-6.5,1-70.3,14.4-144.3,29.9c-162.1,34-406.9,85.4-444.6,90
	C154.8,721.2,144.7,722.4,134.8,722.4L134.8,722.4z"/>
<path class="st3" d="M134.8,712.9c-9.6,0-18.3-1.3-28.1-4.2c-23.6-7-33.5-30.9-34.8-51.1c-1.1-15.6-4.8-206.2-5.6-246.7
	c-0.3-1.8-0.3-3.6,0-5.2c0.2-1.1,0.5-2.1,1-3.1c1.3-2.5,5-6.4,35.8-31.1c19.8-15.9,45.9-36.5,71.8-56.5
	c28.2-21.8,54.2-41.5,73.1-55.4c36.5-26.8,39-26.8,42.8-26.8c0.5,0,1,0,1.5,0.1c4.6,0.7,8.8,3.3,14.2,6.7c5.7,3.6,12.8,8.1,18.1,8.1
	c1,0,1.8-0.2,2.6-0.5c0.2-0.4,1.3-2.2,1.2-7.9c0-5.3-0.9-11.6-1.7-17.2c-1.6-11.2-2.6-18.6,1.6-23.8c1.7-2.2,4.1-5.2,88.1-51
	c37.6-20.5,84.1-45.4,90.2-48.1c1.8-0.8,3.8-2,5.9-3.2c6.7-3.9,15-8.8,27.5-8.8c3.7,0,7.7,0.5,11.7,1.3c1.4,0.3,2.9,0.6,4.6,1
	c23.2,5,71.6,15.4,124.2,50.9c83.6,56.4,115.2,87.9,111.8,111.7c0.4,19.3,5.6,260.9,5.6,282.8c0,13.1-4,25.8-11.2,35.8
	c-7.8,10.7-19,17.7-31.6,19.6c-6.7,1.1-67.6,13.8-144.8,30c-161.9,34-406.5,85.3-443.8,89.9C154,711.7,144.1,712.9,134.8,712.9
	L134.8,712.9z"/>
<path class="st4" d="M336.8,419.4l-247.6,9c0,0-15.7-15.7-13.4-21.3C78,401.4,283,241.2,290.9,242.3c7.8,1.1,25.8,20.2,40.4,13.4
	c14.6-6.7,0-46,4.5-51.5c4.5-5.6,164.7-91.9,174.8-96.3c10.1-4.5,19-14.6,39.2-10.1s70.6,13.4,125.5,50.4s112,79.6,107.6,103.1
	S336.8,419.4,336.8,419.4z"/>
<path class="st5" d="M165.3,700.6c54.9-6.7,567-116.5,588.3-119.9c21.3-3.3,34.7-23.5,34.7-46s-5.6-283.5-5.6-283.5
	s-24.7,7.8-53.8,14.6c-29.1,6.7-267.8,64.9-361.9,86.3s-244.2,60.6-261.1,60.6s-30.3-5.6-30.3-5.6s4.5,233,5.6,249.9
	c1.1,16.8,9,36.9,28,42.6S140.7,703.6,165.3,700.6z"/>
<path class="st6" d="M496.7,163.4c0,14.3,14.6,23.8,38.7,23.1c26.3-0.8,33.6-16.4,32.8-26.4c-0.8-10.1-13-18.9-36.9-18.5
	C508.9,141.9,496.7,150.8,496.7,163.4z"/>
<path class="st7" d="M227.8,342c-38.8,13.1-34.4,47-23.1,54.6s26.4,7.2,44.1,0.8s28.9-13.6,30.7-25.4
	C281.1,360.8,266.4,328.9,227.8,342L227.8,342z"/>
<path class="st7" d="M580.3,244.9c-26,1.2-54.8,19.9-65.5,37.8c-11.3,18.9-12.2,41.2,13.8,55s118.1-21.4,113.5-53.8
	C637.5,251.6,607.6,243.6,580.3,244.9L580.3,244.9z"/>
<path class="st7" d="M490,506.6c0,0,36.9-27.3,36.9-46.6c0-19.3-15.9-65-83.6-68.5c-63.5-3.3-102.6,83.2-60.9,127.7
	s66.8,24.4,82.4,20.2C480.3,535.2,490,506.6,490,506.6L490,506.6z"/>
<path class="st7" d="M301.6,596c0,0,36.7-23,8.5-48.2c-19.8-17.7-46.3-9.7-59.8,4.1c-17.3,17.7-12.6,45.8,3.3,58.4
	C269.6,622.9,301.6,596,301.6,596z"/>
<path class="st7" d="M182.8,481c0,0-4.2-13.2-19.2-18.5c-16.8-6-42,15-31.2,37.4c9.7,20.2,31.1,14.3,31.1,14.3L182.8,481z"/>
<path class="st7" d="M720.2,500.3c3.6-3.9,27.5-21.1,27.5-34.2c0-13-35.9-53.2-81.7-23c-45.8,30.3-21.8,76-9.3,83.6
	C669.4,534.3,704.3,517.6,720.2,500.3L720.2,500.3z"/>
<path class="st6" d="M233.4,362.6c-25.5,8.8-35.1,26.9-28.7,34c6.7,7.6,21.4,12.6,47,3.3c19.8-7.2,29.8-19.2,28.2-29.8
	C278.7,362.3,256.5,354.6,233.4,362.6L233.4,362.6z"/>
<path class="st6" d="M148.4,480.1c-11.2,14-2.1,29.8,8.4,33.6c10.5,3.8,29-7.6,27.8-26.4C183.2,468.4,158.5,467.5,148.4,480.1z"/>
<path class="st6" d="M278.2,556.3c-24,19.5-24.7,38.5-15.4,44.9c6.4,4.5,30.2,14,51.9-2.1c16.1-11.9,16.4-36.8,11.3-48.8
	C321.8,540.2,298.4,539.8,278.2,556.3L278.2,556.3z"/>
<path class="st6" d="M423.9,450.2c-32.1,31.2-39.8,81.9-8.2,93.8c27.8,10.5,67.6,4.2,91.1-24.8c24.7-30.4,27.3-64,11.5-83.9
	C499.2,411.6,448.7,426.1,423.9,450.2z"/>
<path class="st6" d="M569.8,276c-42,14.3-66.8,44.5-45.4,59.7c21.4,15.1,43.7,12.9,68,4.6c27.6-9.4,48.8-31.1,49.6-51.7
	C642.7,271.7,606.8,263.4,569.8,276z"/>
<path class="st6" d="M682,469.2c-28.6,23.3-36.9,46.6-25.2,57.5s39.9,15.9,66-2.1c27-18.7,29-40,26-57.1
	C745.5,448.3,711.4,445.3,682,469.2z"/>
<path class="st8" d="M660.1,582.7H263.6c-11,0-19.8-8.9-19.8-19.8V319.7c0-11,8.9-19.8,19.8-19.8h396.5c11,0,19.8,8.9,19.8,19.8
	v243.2C679.9,573.8,671,582.7,660.1,582.7z"/>
<text transform="matrix(1.1279 -1.182495e-03 1.048363e-03 1 246.7624 338.9585)" class="st9 st10">C</text>
<text transform="matrix(1.1279 -1.182495e-03 1.048363e-03 1 274.3957 338.9295)" class="st11 st10">losed toed shoes</text>
<text transform="matrix(1.1279 -1.182495e-03 1.048363e-03 1 246.8119 386.1587)" class="st9 st10">H</text>
<text transform="matrix(1.1279 -1.182495e-03 1.048363e-03 1 279.8592 386.124)" class="st11 st10">air tied up</text>
<text transform="matrix(1.1279 -1.182495e-03 1.048363e-03 1 246.8612 433.2583)" class="st9 st10">E</text>
<text transform="matrix(1.1279 -1.182495e-03 1.048363e-03 1 271.9008 433.232)" class="st11 st10">yes protected</text>
<text transform="matrix(1.1279 -1.182495e-03 1.048363e-03 1 246.9107 480.4585)" class="st9 st10">E</text>
<text transform="matrix(1.1279 -1.182495e-03 1.048363e-03 1 271.9503 480.4322)" class="st11 st10">mbellishments tucked</text>
<text transform="matrix(1.1279 -1.182495e-03 1.048363e-03 1 246.9602 527.6586)" class="st9 st10">S</text>
<text transform="matrix(1.1279 -1.182495e-03 1.048363e-03 1 265.345 527.6394)" class="st11 st10">urroundings clear</text>
<text transform="matrix(1.1279 -1.182495e-03 1.048363e-03 1 247.0096 574.7582)" class="st9 st10">E</text>
<text transform="matrix(1.1279 -1.182495e-03 1.048363e-03 1 272.0491 574.732)" class="st11 st10">xtras sorted</text>
<text transform="matrix(1 0 0 1 942 455)" style="font-family:'MyriadPro-Regular'; font-size:12px;">`</text>
</svg>
